<?xml version="1.0" standalone="no"?><!DOCTYPE svg PUBLIC "-//W3C//DTD SVG 1.1//EN" "http://www.w3.org/Graphics/SVG/1.1/DTD/svg11.dtd"><svg t="1672311209640" class="icon" viewBox="0 0 1024 1024" version="1.1" xmlns="http://www.w3.org/2000/svg" p-id="12647" xmlns:xlink="http://www.w3.org/1999/xlink" width="200" height="200"><path d="M854.518 535.606c15.444-25.941 29.697-53.796 42.141-83.619a581.703 581.703 0 0 0 9.386-27.169c-9.416 26.895-22.468 56.594-40.14 89.263a686.967 686.967 0 0 1-11.387 21.525zM117.997 428.126a584.106 584.106 0 0 0 8.323 23.863c12.048 28.872 25.791 55.899 40.67 81.134a685.278 685.278 0 0 1-10.026-19.041c-16.951-31.337-29.649-59.939-38.967-85.956zM129.098 208.044s-0.936 0.87-2.494 2.66c-6.561 9.673-20.675 52.047 27.215 223.195 67.352 181.5 170.466 287.08 248.706 345.041 52.132 35.12 94.042 54.939 108.965 61.559 14.82-6.587 56.274-26.211 107.749-60.744 78.371-57.784 182.141-163.5 249.81-345.856 47.89-171.147 33.776-213.521 27.215-223.195-1.558-1.791-2.494-2.66-2.494-2.66s1.069 0.559 2.494 2.66c6.09 6.997 21.694 28.072 28.18 66.332-3.381-23.364-10.765-43.342-22.103-59.682-25.932-37.372-73.49-56.32-141.354-56.32-62.681 0-121.153 31.572-173.793 93.839-40.071 47.399-61.076 95.068-61.283 95.544l-14.412 33.058-14.412-33.058c-0.207-0.472-21.564-48.75-61.798-96.146-52.52-61.868-110.822-93.237-173.289-93.237-67.866 0-115.426 18.95-141.359 56.323-10.596 15.27-17.738 33.717-21.388 55.135 6.901-35.392 21.508-55.072 27.352-61.787 1.424-2.102 2.493-2.661 2.493-2.661z" fill="#E0344C" p-id="12648"></path><path d="M928.175 199.428c-32.156-46.341-88.406-69.838-167.188-69.838-40.031 0-78.981 11.208-115.768 33.312-28.925 17.38-56.527 41.494-82.038 71.671-23.443 27.731-40.692 55.283-51.683 74.958-10.992-19.675-28.242-47.228-51.686-74.959-25.513-30.177-53.116-54.291-82.042-71.671-36.79-22.103-75.74-33.311-115.77-33.311-78.784 0-135.036 23.498-167.193 69.841-22.032 31.753-31.953 73.371-29.486 123.699 2.076 42.343 12.724 89.493 31.646 140.139l0.216 0.545c27.933 67.026 66.79 130.209 115.492 187.793 38.882 45.972 84.087 88.493 134.362 126.381 85.664 64.559 155.663 93.03 158.601 94.211l5.861 2.355 5.862-2.355c2.937-1.181 72.931-29.652 158.591-94.211 50.272-37.889 95.476-80.409 134.355-126.381 48.7-57.584 87.556-120.766 115.489-187.792l0.216-0.545c18.923-50.648 29.571-97.798 31.648-140.141 2.467-50.33-7.453-91.949-29.485-123.701zM511.49 841.102l-0.056-0.019-0.056 0.019 0.056-0.019a0.008 0.008 0 0 1-0.004-0.002c-3.922-1.364-218.106-76.701-344.441-307.958-14.879-25.235-28.622-52.262-40.67-81.134a584.106 584.106 0 0 1-8.323-23.863c-24.838-69.353-25.631-120.317-18.745-155.634 3.651-21.418 10.793-39.865 21.388-55.135 25.933-37.373 73.493-56.323 141.359-56.323 62.467 0 120.769 31.369 173.288 93.237 40.234 47.397 61.592 95.675 61.798 96.146l14.412 33.058 14.412-33.058c0.207-0.476 21.212-48.144 61.283-95.544 52.64-62.267 111.112-93.839 173.793-93.839 67.864 0 115.422 18.948 141.354 56.32 11.338 16.34 18.722 36.318 22.103 59.682 5.85 34.513 4.278 83.009-18.399 147.783a582.505 582.505 0 0 1-9.386 27.169c-12.444 29.823-26.697 57.678-42.141 83.619-126.503 229.314-339.169 304.116-343.076 305.474a0.008 0.008 0 0 0-0.004 0.002l0.055 0.019z" fill="" p-id="12649"></path><path d="M511.439 841.081c1.792-0.623 47.202-16.647 107.8-61.326-51.474 34.533-92.929 54.157-107.749 60.744-14.923-6.62-56.833-26.438-108.965-61.559 61.15 45.302 107.102 61.515 108.905 62.141l0.004 0.002 0.005-0.002z" fill="" p-id="12650"></path><path d="M153.82 433.899c-47.89-171.147-33.776-213.521-27.215-223.195-5.845 6.715-20.452 26.395-27.352 61.787-6.886 35.317-6.093 86.282 18.745 155.634 9.318 26.017 22.016 54.619 38.967 85.956a685.278 685.278 0 0 0 10.026 19.041C293.324 764.38 507.509 839.718 511.43 841.081c-1.803-0.626-47.754-16.839-108.905-62.141-78.239-57.961-181.354-163.541-248.705-345.041zM129.098 208.044s-1.069 0.559-2.494 2.66c1.559-1.79 2.494-2.66 2.494-2.66zM511.49 841.102l-0.056-0.019 0.056 0.019zM511.43 841.081l0.005 0.002z" fill="#FFFFFF" p-id="12651"></path><path d="M869.049 433.899c-67.67 182.356-171.439 288.072-249.81 345.856-60.598 44.679-106.008 60.703-107.8 61.326 3.908-1.359 216.574-76.161 343.079-305.475a688.027 688.027 0 0 0 11.387-21.524c17.672-32.67 30.724-62.368 40.14-89.263 22.677-64.774 24.25-113.27 18.399-147.783-6.485-38.26-22.09-59.334-28.18-66.332 6.562 9.674 20.675 52.048-27.215 223.195z" fill="#E00505" p-id="12652"></path><path d="M893.77 208.044s0.936 0.87 2.494 2.66c-1.424-2.101-2.494-2.66-2.494-2.66zM511.435 841.083l-0.056 0.019 0.056-0.019a0.008 0.008 0 0 0 0.004-0.002l-0.004 0.002z" fill="#E00505" p-id="12653"></path></svg>