<?xml version="1.0" standalone="no"?><!DOCTYPE svg PUBLIC "-//W3C//DTD SVG 1.1//EN" "http://www.w3.org/Graphics/SVG/1.1/DTD/svg11.dtd"><svg t="1670172279016" class="icon" viewBox="0 0 1024 1024" version="1.1" xmlns="http://www.w3.org/2000/svg" p-id="4353" xmlns:xlink="http://www.w3.org/1999/xlink" width="200" height="200"><path d="M502.491429 7.094857a281.6 281.6 0 1 1 0 563.2l13.604571-0.219428a43.885714 43.885714 0 0 1-13.165714 1.974857 394.971429 394.971429 0 0 0-394.971429 394.971428 43.885714 43.885714 0 1 1-87.771428 0A482.962286 482.962286 0 0 1 334.262857 514.56 281.6 281.6 0 0 1 502.491429 7.168z m285.257142 630.491429c4.461714 0 8.192 3.657143 8.192 8.265143v149.650285a8.265143 8.265143 0 0 1-5.12 7.606857 8.338286 8.338286 0 0 1-8.923428-1.828571l-46.738286-46.518857a106.057143 106.057143 0 1 0 188.854857 66.340571c0-21.650286-3.803429-38.4-11.264-50.249143l-4.096-5.485714a40.228571 40.228571 0 0 1 61.220572-52.224c24.356571 28.525714 34.596571 65.170286 34.596571 107.885714a186.514286 186.514286 0 1 1-326.363428-123.392l-45.860572-46.006857a8.265143 8.265143 0 0 1-1.828571-8.996571 8.192 8.192 0 0 1 7.606857-5.12h149.723428z m-285.257142-542.72a193.828571 193.828571 0 1 0 0 387.657143 193.828571 193.828571 0 0 0 0-387.657143z" p-id="4354"></path></svg>