<?xml version="1.0" standalone="no"?><!DOCTYPE svg PUBLIC "-//W3C//DTD SVG 1.1//EN" "http://www.w3.org/Graphics/SVG/1.1/DTD/svg11.dtd"><svg t="1669303773009" class="icon" viewBox="0 0 1024 1024" version="1.1" xmlns="http://www.w3.org/2000/svg" p-id="1634" xmlns:xlink="http://www.w3.org/1999/xlink" width="200" height="200"><path d="M868.891913 547.871067C786.567684 440.358083 518.655566 144.799768 269.430228 330.336462a4.761289 4.761289 0 0 1-0.92154 0.614359c-4.607699 3.122996-59.439322 42.544424-92.153987 171.04804-1.433506 5.580436-3.122996 10.853692-5.119666 16.843701L94.030473 793.615033c-27.441409 95.532966 52.834953 189.42764 169.358549 197.670302h2.559833a268.372889 268.372889 0 0 0 36.298431 0c97.836816-6.757959 561.268977-54.012476 596.236296-340.304196a140.38124 140.38124 0 0 0-29.591669-103.417252z" fill="#5093FF" p-id="1635"></path><path d="M859.676514 449.624678c-80.890722-113.861371-316.139372-422.321244-561.166584-225.265301 0 0-59.388125 45.82101-91.386037 182.311304-1.38231 5.938812-3.020603 11.519248-5.119666 17.918831l-104.082808 286.342916c-26.878246 101.318189 51.913413 200.895692 166.491536 209.906303h2.508636a244.156869 244.156869 0 0 0 35.837662 0c96.147326-7.167532 551.797595-57.391455 586.20175-361.448415a158.095284 158.095284 0 0 0-29.130899-109.868031z" fill="#E1F1FF" p-id="1636"></path><path d="M902.016151 433.80491C810.681311 291.88777 513.484703-99.664281 237.022742 145.977291a8.959415 8.959415 0 0 1-1.023933 0.819147c-5.119666 4.146929-65.992494 56.316325-102.086139 226.391627-1.587096 7.423516-3.430176 14.386261-5.580436 22.372941L42.42424 759.466861A212.517333 212.517333 0 0 0 230.418373 1020.979397l2.867013 0.30718a251.426794 251.426794 0 0 0 40.240574 0c108.485721-8.959415 622.602575-71.675323 661.409643-450.530603a212.26135 212.26135 0 0 0-32.817058-136.951064z m-25.598329 137.207047c-33.021845 322.129381-491.48793 386.688369-583.641918 394.214278a200.178938 200.178938 0 0 1-34.148171 0h-2.406243c-109.970424-9.420185-178.317965-91.898004-152.617242-199.257398l78.638069-348.137285c1.740686-6.706762 3.430176-12.645575 4.710092-18.942763 30.717996-144.630563 82.477818-188.96687 86.727141-192.397047 0.30718-0.30718 0.61436-0.409573 0.870344-0.716753C509.337774-2.953791 762.044485 329.978085 839.65862 450.597415c22.168154 34.404155 40.650148 79.610805 36.554415 120.414542z m0 0" fill="#2765C1" p-id="1637"></path><path d="M771.46467 215.348764c1.5359 2.559833-132.548151-207.756044-315.320225-215.333149a19.966697 19.966697 0 0 0-19.608321 26.622263 247.535848 247.535848 0 0 0 69.11549 103.110072A19.915501 19.915501 0 0 1 496.641002 164.152105c-37.987921 8.549842-92.461167 22.321744-125.022242 36.861595a19.915501 19.915501 0 0 0-0.870343 35.837661c36.554415 18.379601 107.103412 46.947337 191.014736 45.360241a19.966697 19.966697 0 0 1 15.358998 32.868255c-35.837662 42.800407-89.184581 112.939831-94.457837 158.300071a20.017894 20.017894 0 0 0 27.74859 20.478664c37.527151-16.331734 116.4724-54.319656 160.859903-102.393319a19.915501 19.915501 0 0 1 34.404156 11.519248c5.938812 56.316325 17.458061 138.947734 37.834331 184.307974a19.915501 19.915501 0 0 0 35.837661 0.61436c15.358998-30.717996 37.219971-81.914655 42.339638-131.421825a19.966697 19.966697 0 0 1 33.277828-12.799165c27.594999 25.188756 66.862837 59.029748 97.273653 77.921316a19.966697 19.966697 0 0 0 30.717996-17.355667c-1.023933-62.971891-25.59833-176.321295-214.462806-290.950616" fill="#2765C1" p-id="1638"></path><path d="M732.555209 209.973115a264.789123 264.789123 0 0 1 227.261971-191.373113A19.864304 19.864304 0 0 1 977.889601 50.188341a8.857022 8.857022 0 0 1-8.140269 7.372319 225.572481 225.572481 0 0 0-197.670302 158.709644z m0 0" fill="#2765C1" p-id="1639"></path><path d="M281.307853 484.643193c4.146929 3.327783 12.491985 0.76795 21.809777-6.757959a89.389367 89.389367 0 0 0 23.396873-29.540472c5.119666-10.802495 5.734026-19.454731 1.5359-22.782514s-12.491985-0.716753-21.809777 6.757959a90.003727 90.003727 0 0 0-23.396874 29.540473c-5.119666 10.802495-5.734026 19.505927-1.535899 22.782513z m0 0M281.307853 628.301019c4.146929 3.276586 12.491985 0.716753 21.809777-6.757959a88.723811 88.723811 0 0 0 23.396873-29.540472c5.119666-10.802495 5.734026-19.505927 1.5359-22.83371s-12.491985-0.716753-21.809777 6.757959a90.72048 90.72048 0 0 0-23.396874 29.591669c-5.119666 10.751298-5.734026 19.454731-1.535899 22.782513z m0 0M336.753835 747.538039c4.198126 3.327783 12.491985 0.76795 21.860973-6.757959A89.235777 89.235777 0 0 0 381.960485 711.700378c5.119666-10.802495 5.785223-19.505927 1.587097-22.782514s-12.543182-0.76795-21.860974 6.757959a90.003727 90.003727 0 0 0-23.396873 29.540473c-5.119666 10.802495-5.734026 19.454731-1.5359 22.782513z m0 0M198.830034 807.489327c4.146929 3.276586 12.491985 0.716753 21.809777-6.757959a90.003727 90.003727 0 0 0 23.396874-29.540472c5.119666-10.802495 5.734026-19.505927 1.535899-22.83371s-12.491985-0.716753-21.809777 6.757959a90.413301 90.413301 0 0 0-23.396873 29.540472c-5.119666 10.802495-5.734026 19.505927-1.5359 22.83371z m0 0M565.705296 709.345331c4.198126 3.327783 12.491985 0.76795 21.860973-6.757959a90.003727 90.003727 0 0 0 23.396874-29.540472c5.119666-10.802495 5.734026-19.505927 1.535899-22.782514s-12.491985-0.76795-21.860973 6.757959a89.235777 89.235777 0 0 0-23.345677 29.540473c-5.119666 10.802495-5.734026 19.505927-1.587096 22.782513z m0 0M380.834159 877.167981c4.198126 3.327783 12.491985 0.716753 21.860973-6.757959a90.003727 90.003727 0 0 0 23.396873-29.540473c5.119666-10.802495 5.734026-19.505927 1.5359-22.83371s-12.491985-0.716753-21.860973 6.757959a89.901334 89.901334 0 0 0-23.345677 29.591669c-5.119666 10.751298-5.785223 19.454731-1.587096 22.782514z m0 0M463.311977 659.582178c4.198126 3.327783 12.491985 0.716753 21.860973-6.757959a90.003727 90.003727 0 0 0 23.396874-29.540472c5.119666-10.802495 5.734026-19.505927 1.5359-22.782514s-12.491985-0.76795-21.860974 6.706763a89.901334 89.901334 0 0 0-23.345677 29.591669c-5.119666 10.751298-5.734026 19.454731-1.587096 22.782513z m0 0" fill="#2765C1" p-id="1640"></path></svg>