<?xml version="1.0" standalone="no"?><!DOCTYPE svg PUBLIC "-//W3C//DTD SVG 1.1//EN" "http://www.w3.org/Graphics/SVG/1.1/DTD/svg11.dtd"><svg t="1669214593239" class="icon" viewBox="0 0 1024 1024" version="1.1" xmlns="http://www.w3.org/2000/svg" p-id="2727" xmlns:xlink="http://www.w3.org/1999/xlink" width="200" height="200"><path d="M949.638897 509.757936c0-241.799068-196.006116-437.805184-437.805184-437.805184-241.800092 0-437.806207 196.006116-437.806207 437.805184 0 241.811348 196.006116 437.817464 437.806207 437.817464 99.262748 0 190.149734-33.771151 263.59242-89.425705 3.015683-3.421936 4.999874-7.789407 4.999874-12.698207 0-10.717086-8.692986-19.407002-19.408025-19.407002-5.562692 0-10.513448 2.207271-14.048971 5.944386l-0.246617 0c-65.719794 48.358381-146.610102 77.313853-234.459916 77.313853-218.947618 0-396.469754-177.544649-396.469754-396.482033 0-218.97013 177.522136-396.470777 396.469754-396.470777 218.969107 0 396.469754 177.500647 396.469754 396.470777 0 66.865897-15.692401 129.814578-44.962028 185.110975l0 0.325411c-0.538259 1.845021-1.12359 3.645017-1.12359 5.627161 0 10.719132 8.688893 19.407002 19.407002 19.407002 8.353248 0 15.331173-5.357008 18.055215-12.742209l0 0.135076C931.289993 650.424676 949.638897 582.250994 949.638897 509.757936zM506.813373 276.017404c0-11.527544-9.367345-20.892843-20.917402-20.892843-11.527544 0-20.892843 9.365298-20.892843 20.892843l0 248.508887c0 0-2.520403 42.010813 41.786709 41.785685L731.994971 566.311976c0.068562 0 0.156566 0.045025 0.228197 0.045025 11.546987 0 20.914332-9.364275 20.914332-20.891819s-9.367345-20.892843-20.892843-20.938891L506.79086 524.526291 506.79086 276.153504C506.79086 276.108478 506.813373 276.06243 506.813373 276.017404z" p-id="2728"></path></svg>