<?xml version="1.0" standalone="no"?><!DOCTYPE svg PUBLIC "-//W3C//DTD SVG 1.1//EN" "http://www.w3.org/Graphics/SVG/1.1/DTD/svg11.dtd"><svg t="1670083014237" class="icon" viewBox="0 0 1024 1024" version="1.1" xmlns="http://www.w3.org/2000/svg" p-id="4202" xmlns:xlink="http://www.w3.org/1999/xlink" width="200" height="200"><path d="M845.552 430.624h-71.848V262.816C773.704 122.288 659.968 8 520.04 8 380.096 8 266.24 122.288 266.24 262.832v167.8h-71.784c-34.616 0-62.672 28.16-62.672 62.928v459.44c0 34.824 28.064 63.008 62.672 63.008h651.16c34.616 0 62.6-28.184 62.6-63.008v-459.44c0-34.776-28.048-62.936-62.664-62.936zM555.216 735.248v100.32a8.28 8.28 0 0 1-8.208 8.264h-53.88a8.32 8.32 0 0 1-8.272-8.256V735.248c-25.312-13-42.84-39.056-42.84-69.592 0-43.208 34.928-78.36 77.968-78.36 43.096 0 78.04 35.144 78.04 78.344 0.048 30.552-17.48 56.608-42.808 69.608z m121.128-304.624h-312.64V266.976c0-86.56 70.208-157.056 156.392-157.056s156.256 70.496 156.256 157.056v163.648h-0.008z m0 0" p-id="4203" fill="#8a8a8a"></path></svg>